<svg width="100%" viewBox="0 0 900 200" xmlns="http://www.w3.org/2000/svg" role="img" aria-labelledby="title desc">
  <title id="title">Companion Banner</title>
  <desc id="desc">Project banner for Companion with stack pills.</desc>
  <rect width="900" height="200" fill="#0d1117"/>

  <g stroke="#24292f" stroke-width="1" fill="none" opacity="0.9">
    <path d="M0 48H900"/>
    <path d="M0 96H900"/>
    <path d="M0 144H900"/>
    <path d="M120 0V200"/>
    <path d="M300 0V200"/>
    <path d="M600 0V200"/>
    <path d="M780 0V200"/>
  </g>

  <g fill="none" stroke="#30363d" stroke-width="2">
    <circle cx="96" cy="64" r="28"/>
    <circle cx="804" cy="56" r="20"/>
    <path d="M40 170L170 120"/>
    <path d="M760 132L870 172"/>
    <path d="M420 26L480 26"/>
  </g>

  <text x="450" y="84" text-anchor="middle" fill="#f0f6fc" font-size="52" font-weight="700" font-family="system-ui, -apple-system, monospace">Companion</text>
  <text x="450" y="112" text-anchor="middle" fill="#9da7b3" font-size="18" font-weight="500" font-family="system-ui, -apple-system, monospace">A map-first social activity prototype for discovering and joining nearby plans</text>

  <g transform="translate(140,146)">
    <rect x="0" y="0" width="128" height="30" rx="15" fill="#161b22" stroke="#30363d"/>
    <text x="64" y="20" text-anchor="middle" fill="#f0f6fc" font-size="13" font-family="system-ui, -apple-system, monospace">React</text>

    <rect x="140" y="0" width="146" height="30" rx="15" fill="#161b22" stroke="#30363d"/>
    <text x="213" y="20" text-anchor="middle" fill="#f0f6fc" font-size="13" font-family="system-ui, -apple-system, monospace">JavaScript JSX</text>

    <rect x="298" y="0" width="152" height="30" rx="15" fill="#161b22" stroke="#30363d"/>
    <text x="374" y="20" text-anchor="middle" fill="#f0f6fc" font-size="13" font-family="system-ui, -apple-system, monospace">CSS-in-JS String</text>

    <rect x="462" y="0" width="168" height="30" rx="15" fill="#161b22" stroke="#30363d"/>
    <text x="546" y="20" text-anchor="middle" fill="#f0f6fc" font-size="13" font-family="system-ui, -apple-system, monospace">Local Mock Data</text>
  </g>
</svg>
